<svg xmlns="http://www.w3.org/2000/svg" xmlns:xlink="http://www.w3.org/1999/xlink" version="1.1" x="0px" y="0px" viewBox="0 0 100 125" enable-background="new 0 0 100 100" xml:space="preserve"><g><g><path d="M93.486,95H6V5.262h87.486V95z M7.928,93.071h83.631V7.189H7.928V93.071z"/></g><g><path d="M92.126,62.082H7.064c-0.532,0-0.964-0.432-0.964-0.963c0-0.533,0.432-0.965,0.964-0.965h85.062    c0.533,0,0.964,0.432,0.964,0.965C93.09,61.65,92.659,62.082,92.126,62.082z"/></g><g><path d="M30.481,94.625c-0.533,0-0.964-0.433-0.964-0.964V6.679c0-0.532,0.431-0.964,0.964-0.964s0.964,0.432,0.964,0.964v86.982    C31.445,94.192,31.014,94.625,30.481,94.625z"/></g><g><path d="M30.481,24.256H7.064c-0.532,0-0.964-0.432-0.964-0.965c0-0.531,0.432-0.964,0.964-0.964h23.417    c0.533,0,0.964,0.433,0.964,0.964C31.445,23.824,31.014,24.256,30.481,24.256z"/></g><g><path d="M70.51,94.906c-0.531,0-0.962-0.432-0.962-0.963V61.119c0-0.533,0.431-0.965,0.962-0.965c0.534,0,0.965,0.432,0.965,0.965    v32.824C71.475,94.475,71.044,94.906,70.51,94.906z"/></g><g><path d="M91.926,74.893H70.51c-0.531,0-0.962-0.432-0.962-0.965c0-0.531,0.431-0.963,0.962-0.963h21.416    c0.532,0,0.964,0.432,0.964,0.963C92.89,74.461,92.458,74.893,91.926,74.893z"/></g><g><path d="M9.342,73.484c-0.247,0-0.494-0.095-0.682-0.282c-0.377-0.378-0.376-0.987,0-1.363l2.841-2.842    c0.377-0.376,0.987-0.376,1.363,0c0.377,0.376,0.377,0.987,0,1.363l-2.842,2.842C9.834,73.39,9.588,73.484,9.342,73.484z"/></g><g><path d="M22.754,77.348c-0.247,0-0.494-0.094-0.682-0.282c-0.376-0.376-0.376-0.986,0-1.362l2.842-2.842    c0.375-0.376,0.987-0.376,1.363,0s0.376,0.987,0,1.363l-2.841,2.841C23.249,77.254,23.001,77.348,22.754,77.348z"/></g><g><path d="M22.3,84.851c-0.247,0-0.494-0.094-0.682-0.283c-0.376-0.376-0.376-0.985,0-1.364l2.842-2.84    c0.376-0.378,0.987-0.378,1.363,0c0.376,0.376,0.376,0.985,0,1.364l-2.841,2.84C22.792,84.757,22.546,84.851,22.3,84.851z"/></g><g><path d="M13.774,77.917c-0.247,0-0.494-0.094-0.682-0.283c-0.376-0.375-0.376-0.987,0-1.363l11.026-11.026    c0.377-0.376,0.987-0.376,1.364,0c0.376,0.378,0.376,0.987,0,1.363L14.457,77.635C14.269,77.823,14.021,77.917,13.774,77.917z"/></g><g><path d="M73.059,84.163c-0.248,0-0.494-0.094-0.682-0.282c-0.377-0.376-0.377-0.988,0-1.364l2.686-2.688    c0.377-0.376,0.987-0.376,1.363,0c0.377,0.376,0.377,0.986,0,1.363l-2.686,2.688C73.552,84.069,73.305,84.163,73.059,84.163z"/></g><g><path d="M85.742,87.814c-0.247,0-0.495-0.094-0.683-0.28c-0.377-0.378-0.377-0.987,0-1.365l2.686-2.686    c0.377-0.377,0.987-0.377,1.363,0c0.377,0.376,0.377,0.986,0,1.363l-2.686,2.686C86.234,87.721,85.987,87.814,85.742,87.814z"/></g><g><path d="M77.251,88.353c-0.248,0-0.494-0.095-0.682-0.282c-0.378-0.377-0.378-0.987,0-1.363l10.425-10.424    c0.375-0.377,0.984-0.377,1.363,0c0.376,0.376,0.376,0.985-0.001,1.363L77.932,88.071C77.743,88.258,77.496,88.353,77.251,88.353z    "/></g><g><path d="M43.787,19.991c-0.247,0-0.493-0.094-0.682-0.282c-0.376-0.377-0.376-0.988,0-1.364l2.133-2.133    c0.377-0.376,0.987-0.376,1.364,0c0.376,0.377,0.376,0.988,0,1.364l-2.134,2.134C44.281,19.896,44.034,19.991,43.787,19.991z"/></g><g><path d="M74.186,50.388c-0.248,0-0.494-0.094-0.683-0.282c-0.376-0.377-0.376-0.987,0-1.364l2.134-2.133    c0.377-0.375,0.986-0.375,1.362,0c0.378,0.377,0.378,0.987,0,1.364l-2.133,2.133C74.677,50.293,74.432,50.388,74.186,50.388z"/></g><g><path d="M38.276,40.433c-0.246,0-0.493-0.094-0.681-0.282c-0.377-0.376-0.377-0.986,0-1.363l27.909-27.91    c0.376-0.376,0.987-0.376,1.363,0c0.376,0.377,0.376,0.987,0,1.363L38.958,40.15C38.77,40.339,38.522,40.433,38.276,40.433z"/></g><g><path d="M55.875,58.032c-0.246,0-0.493-0.094-0.682-0.282c-0.376-0.376-0.376-0.988,0-1.363l27.907-27.909    c0.379-0.377,0.988-0.377,1.365,0c0.376,0.376,0.376,0.986,0,1.363L56.559,57.75C56.369,57.938,56.122,58.032,55.875,58.032z"/></g><g><path d="M39.02,57.82c-0.247,0-0.493-0.095-0.682-0.282c-0.376-0.377-0.376-0.986,0-1.363l45.835-45.833    c0.377-0.377,0.986-0.376,1.363,0c0.376,0.376,0.376,0.987,0,1.364L39.702,57.538C39.513,57.726,39.267,57.82,39.02,57.82z"/></g></g><text x="0" y="115" fill="#000000" font-size="5px" font-weight="bold" font-family="'Helvetica Neue', Helvetica, Arial-Unicode, Arial, Sans-serif">Created by Robyn Cadavona</text><text x="0" y="120" fill="#000000" font-size="5px" font-weight="bold" font-family="'Helvetica Neue', Helvetica, Arial-Unicode, Arial, Sans-serif">from the Noun Project</text></svg>