<svg xmlns="http://www.w3.org/2000/svg" xmlns:xlink="http://www.w3.org/1999/xlink" version="1.1" x="0px" y="0px" viewBox="0 0 100 125" enable-background="new 0 0 100 100" xml:space="preserve"><path fill="none" stroke="#000000" stroke-width="3.7904" stroke-miterlimit="10" d="M41.384,51.306  c-4.502,3.193,4.051,7.309,6.371-0.106c-2.994-0.981-7.5-0.23-6.57,3.313c4.778,1.746,9.694-5.604,5.881-8.747  c-4.242-3.492-8.989,4.779-7.343,7.967c5.555,0.279,18.844-8.811,12.044-14.397c-8.04-6.61-22.587,15.027-17.101,21.147  c6.581,7.34,29.184-6.289,25.069-14.699c-2.887-5.905-10.961-1.893-9.563,3.64c9.353,3.75,24.009-8.686,13.61-15.421  c-6.429-4.163-18.599,2.179-22.845,6.352c-3.641,3.585-8.774,10.937-0.034,10.572c5.283-0.225,17.634-7.952,16.769-13.882  c-1.034-7.089-10.919-6.31-16.831-3.918c-5.482,2.222-19.594,13.405-16.906,20.552c2.657,7.062,15.961,6.353,21.945,4.734  c5.642-1.517,15.406-6.584,15.413-13.22c0.008-8.761-13.345-10.976-20.183-8.052c-7.259,3.106-20.368,19.01-16.203,27.292  c4.648,9.227,22.343,6.163,30.261,3.271c8.062-2.941,27.067-13.785,23.132-24.586c-4.062-11.137-18.599-8.532-23.775-0.673  c-4.402,6.678-8.514,20.035-1.784,26.762c7.205,7.2,21.341,4.08,28.357-1.389c7.708-6.005,12.344-14.852,7.792-23.685  c-4.399-8.539-13.155-20.405-22.619-24.507c-9.958-4.315-26.769-3.821-36.93-0.314c-15.03,5.196-10.444,28.823-7.469,39.889  c4.491,16.691,31.168,31.665,49.323,26c29.777-9.294,17.795-47.43-5.567-56.778c-9.207-3.686-22.81-4.122-27.733,5.797  c-5.288,10.666-2.692,31.611,4.349,41.113c11.309,15.261,23.936,12.598,33.783-2.509c7.933-12.157,14.372-25.574,0.184-35.433  c-11.52-8.002-32.128-15.199-43.633-3.364c-5.724,5.883-10.058,19.654-0.999,24.837c4.954,2.838,20.276,1.102,24.628-2.291  c-10.643-3.547-33.465,14.415-36.221,23.434c-1.471,4.81,0.337,16.559,5.896,18.488c12.148,4.208,31.777-18.138,38.645-24.196  c7.167-6.331,14.511-12.05,12.535-22.092c-1.692-8.61-9.641-22.496-17.979-27.141c-8.537-4.76-34.219-3.729-38.568,5.289  c-6.62,13.728,0.536,40.272,19.311,39.359c4.188-0.2,11.86-0.802,15.268-3.436c8.745-6.763,5.131-23.948,0.207-31.579  c-5.237-8.109-16.708-15.589-27.144-11.609c-9.334,3.557-24.082,18.341-26.77,27.363c-4.46,14.999,12.703,24.755,25.185,15.632  c7.546-5.518,25.589-29.896,6.42-33.325c-8.093-1.449-12.175,5.039-15.824,10.611C8.681,56.338,5.312,71.376,15.894,84.346  c19.112,23.426,43.848,4.502,52.539-16.145C75.58,51.22,81.369,14.331,59.316,3.154c-6.32-3.203-16.377-3.891-23.303-2.409  c-8.944,1.918-13.71,10.199-19.132,16.387C11.625,23.134,2.402,31.294,1.062,39.6c-1.409,8.739,8.055,16.283,15.471,19.877  c9.093,4.405,20.735,5.085,30.417,2.114c3.622-1.116,13.507-4.111,14.759-8.088C46.583,45.279,25.741,53.69,23.911,70.32  c-2.63,23.91,25.093,26.952,44.418,22.514c16.008-3.672,28.771-16.956,30.725-32.302c0.903-7.107,2.132-17.299-1.555-23.627  c-4.667-8.009-15.713-12.776-25.02-13.163c-13.603-0.568-18.231,11.939-8.652,20.417c10.329,9.145,37.481,6.664,33.2-11.026  c-3.369-13.946-23.22-12.622-34.651-11.022c4.468,1.299,19.216-1.485,18.178-8.023C78.949,4.017,31.3,19.362,27.05,27.003  c5.31,0.604,14.943-0.458,16.352-6.506c-9.636-6.589-17.684,22.442-15.969,28.935c2.021,0.092,4.066-0.007,6.11,0.042"/><text x="0" y="115" fill="#000000" font-size="5px" font-weight="bold" font-family="'Helvetica Neue', Helvetica, Arial-Unicode, Arial, Sans-serif">Created by Michael Chanover</text><text x="0" y="120" fill="#000000" font-size="5px" font-weight="bold" font-family="'Helvetica Neue', Helvetica, Arial-Unicode, Arial, Sans-serif">from the Noun Project</text></svg>